<?xml version="1.0" encoding="UTF-8"?><svg xmlns="http://www.w3.org/2000/svg" xmlns:xlink="http://www.w3.org/1999/xlink" fill-opacity="1" color-rendering="auto" color-interpolation="auto" text-rendering="auto" stroke="black" stroke-linecap="square" width="788" stroke-miterlimit="10" shape-rendering="auto" stroke-opacity="1" fill="black" stroke-dasharray="none" font-weight="normal" stroke-width="1" height="1171" font-family="'Dialog'" font-style="normal" stroke-linejoin="miter" font-size="12" stroke-dashoffset="0" image-rendering="auto">
  <!--Generated by ySVG 2.5-->
  <defs id="genericDefs"/>
  <g>
    <defs id="defs1">
      <clipPath clipPathUnits="userSpaceOnUse" id="clipPath1">
        <path d="M0 0 L788 0 L788 1171 L0 1171 L0 0 Z"/>
      </clipPath>
      <clipPath clipPathUnits="userSpaceOnUse" id="clipPath2">
        <path d="M129 -62 L917 -62 L917 1109 L129 1109 L129 -62 Z"/>
      </clipPath>
    </defs>
    <g fill="white" text-rendering="geometricPrecision" shape-rendering="geometricPrecision" transform="translate(-129,62)" stroke="white">
      <rect x="129" width="788" height="1171" y="-62" clip-path="url(#clipPath2)" stroke="none"/>
    </g>
    <g fill="rgb(51,102,255)" text-rendering="geometricPrecision" shape-rendering="geometricPrecision" transform="matrix(1,0,0,1,-129,62)" stroke="rgb(51,102,255)">
      <ellipse rx="23" ry="25" clip-path="url(#clipPath2)" cx="368.75" cy="-22" stroke="none"/>
    </g>
    <g text-rendering="geometricPrecision" stroke-miterlimit="1.45" shape-rendering="geometricPrecision" font-family="sans-serif" transform="matrix(1,0,0,1,-129,62)" stroke-linecap="butt">
      <text x="361.3145" xml:space="preserve" y="-17.8457" clip-path="url(#clipPath2)" stroke="none">P1</text>
      <ellipse rx="23" fill="none" ry="25" clip-path="url(#clipPath2)" cx="368.75" cy="-22"/>
    </g>
    <g fill="lime" text-rendering="geometricPrecision" shape-rendering="geometricPrecision" transform="matrix(1,0,0,1,-129,62)" stroke="lime">
      <circle r="15" clip-path="url(#clipPath2)" cx="554.75" cy="-22" stroke="none"/>
    </g>
    <g text-rendering="geometricPrecision" stroke-miterlimit="1.45" shape-rendering="geometricPrecision" font-family="sans-serif" transform="matrix(1,0,0,1,-129,62)" stroke-linecap="butt">
      <text x="546.3125" xml:space="preserve" y="-17.8457" clip-path="url(#clipPath2)" stroke="none">D1</text>
      <circle fill="none" r="15" clip-path="url(#clipPath2)" cx="554.75" cy="-22"/>
    </g>
    <g fill="rgb(51,102,255)" text-rendering="geometricPrecision" shape-rendering="geometricPrecision" transform="matrix(1,0,0,1,-129,62)" stroke="rgb(51,102,255)">
      <ellipse rx="23" ry="25" clip-path="url(#clipPath2)" cx="368.75" cy="163" stroke="none"/>
    </g>
    <g text-rendering="geometricPrecision" stroke-miterlimit="1.45" shape-rendering="geometricPrecision" font-family="sans-serif" transform="matrix(1,0,0,1,-129,62)" stroke-linecap="butt">
      <text x="361.3145" xml:space="preserve" y="167.1543" clip-path="url(#clipPath2)" stroke="none">P2</text>
      <ellipse rx="23" fill="none" ry="25" clip-path="url(#clipPath2)" cx="368.75" cy="163"/>
    </g>
    <g fill="lime" text-rendering="geometricPrecision" shape-rendering="geometricPrecision" transform="matrix(1,0,0,1,-129,62)" stroke="lime">
      <circle r="15" clip-path="url(#clipPath2)" cx="554.75" cy="163" stroke="none"/>
    </g>
    <g text-rendering="geometricPrecision" stroke-miterlimit="1.45" shape-rendering="geometricPrecision" font-family="sans-serif" transform="matrix(1,0,0,1,-129,62)" stroke-linecap="butt">
      <text x="546.3125" xml:space="preserve" y="167.1543" clip-path="url(#clipPath2)" stroke="none">D2</text>
      <circle fill="none" r="15" clip-path="url(#clipPath2)" cx="554.75" cy="163"/>
    </g>
    <g fill="red" text-rendering="geometricPrecision" shape-rendering="geometricPrecision" transform="matrix(1,0,0,1,-129,62)" stroke="red">
      <ellipse rx="33.5" ry="32.5" clip-path="url(#clipPath2)" cx="178.25" cy="427" stroke="none"/>
    </g>
    <g text-rendering="geometricPrecision" stroke-miterlimit="1.45" shape-rendering="geometricPrecision" font-family="sans-serif" transform="matrix(1,0,0,1,-129,62)" stroke-linecap="butt">
      <text x="160.1064" xml:space="preserve" y="431.1543" clip-path="url(#clipPath2)" stroke="none">Depot</text>
      <ellipse rx="33.5" fill="none" ry="32.5" clip-path="url(#clipPath2)" cx="178.25" cy="427"/>
    </g>
    <g fill="rgb(51,102,255)" text-rendering="geometricPrecision" shape-rendering="geometricPrecision" transform="matrix(1,0,0,1,-129,62)" stroke="rgb(51,102,255)">
      <ellipse rx="23" ry="25" clip-path="url(#clipPath2)" cx="356.75" cy="427" stroke="none"/>
    </g>
    <g text-rendering="geometricPrecision" stroke-miterlimit="1.45" shape-rendering="geometricPrecision" font-family="sans-serif" transform="matrix(1,0,0,1,-129,62)" stroke-linecap="butt">
      <text x="349.3145" xml:space="preserve" y="431.1543" clip-path="url(#clipPath2)" stroke="none">P1</text>
      <ellipse rx="23" fill="none" ry="25" clip-path="url(#clipPath2)" cx="356.75" cy="427"/>
    </g>
    <g fill="lime" text-rendering="geometricPrecision" shape-rendering="geometricPrecision" transform="matrix(1,0,0,1,-129,62)" stroke="lime">
      <circle r="15" clip-path="url(#clipPath2)" cx="886.5" cy="427" stroke="none"/>
    </g>
    <g text-rendering="geometricPrecision" stroke-miterlimit="1.45" shape-rendering="geometricPrecision" font-family="sans-serif" transform="matrix(1,0,0,1,-129,62)" stroke-linecap="butt">
      <text x="878.0625" xml:space="preserve" y="431.1543" clip-path="url(#clipPath2)" stroke="none">D1</text>
      <circle fill="none" r="15" clip-path="url(#clipPath2)" cx="886.5" cy="427"/>
    </g>
    <g fill="rgb(51,102,255)" text-rendering="geometricPrecision" shape-rendering="geometricPrecision" transform="matrix(1,0,0,1,-129,62)" stroke="rgb(51,102,255)">
      <ellipse rx="23" ry="25" clip-path="url(#clipPath2)" cx="542.75" cy="427" stroke="none"/>
    </g>
    <g text-rendering="geometricPrecision" stroke-miterlimit="1.45" shape-rendering="geometricPrecision" font-family="sans-serif" transform="matrix(1,0,0,1,-129,62)" stroke-linecap="butt">
      <text x="535.3145" xml:space="preserve" y="431.1543" clip-path="url(#clipPath2)" stroke="none">P2</text>
      <ellipse rx="23" fill="none" ry="25" clip-path="url(#clipPath2)" cx="542.75" cy="427"/>
    </g>
    <g fill="lime" text-rendering="geometricPrecision" shape-rendering="geometricPrecision" transform="matrix(1,0,0,1,-129,62)" stroke="lime">
      <circle r="15" clip-path="url(#clipPath2)" cx="707.75" cy="427" stroke="none"/>
    </g>
    <g text-rendering="geometricPrecision" stroke-miterlimit="1.45" shape-rendering="geometricPrecision" font-family="sans-serif" transform="matrix(1,0,0,1,-129,62)" stroke-linecap="butt">
      <text x="699.3125" xml:space="preserve" y="431.1543" clip-path="url(#clipPath2)" stroke="none">D2</text>
      <circle fill="none" r="15" clip-path="url(#clipPath2)" cx="707.75" cy="427"/>
    </g>
    <g fill="red" text-rendering="geometricPrecision" shape-rendering="geometricPrecision" transform="matrix(1,0,0,1,-129,62)" stroke="red">
      <ellipse rx="33.5" ry="32.5" clip-path="url(#clipPath2)" cx="178.25" cy="270.75" stroke="none"/>
    </g>
    <g text-rendering="geometricPrecision" stroke-miterlimit="1.45" shape-rendering="geometricPrecision" font-family="sans-serif" transform="matrix(1,0,0,1,-129,62)" stroke-linecap="butt">
      <text x="160.1064" xml:space="preserve" y="274.9043" clip-path="url(#clipPath2)" stroke="none">Depot</text>
      <ellipse rx="33.5" fill="none" ry="32.5" clip-path="url(#clipPath2)" cx="178.25" cy="270.75"/>
    </g>
    <g fill="rgb(51,102,255)" text-rendering="geometricPrecision" shape-rendering="geometricPrecision" transform="matrix(1,0,0,1,-129,62)" stroke="rgb(51,102,255)">
      <ellipse rx="23" ry="25" clip-path="url(#clipPath2)" cx="356.75" cy="270.75" stroke="none"/>
    </g>
    <g text-rendering="geometricPrecision" stroke-miterlimit="1.45" shape-rendering="geometricPrecision" font-family="sans-serif" transform="matrix(1,0,0,1,-129,62)" stroke-linecap="butt">
      <text x="349.3145" xml:space="preserve" y="274.9043" clip-path="url(#clipPath2)" stroke="none">P1</text>
      <ellipse rx="23" fill="none" ry="25" clip-path="url(#clipPath2)" cx="356.75" cy="270.75"/>
    </g>
    <g fill="lime" text-rendering="geometricPrecision" shape-rendering="geometricPrecision" transform="matrix(1,0,0,1,-129,62)" stroke="lime">
      <circle r="15" clip-path="url(#clipPath2)" cx="707.75" cy="270.75" stroke="none"/>
    </g>
    <g text-rendering="geometricPrecision" stroke-miterlimit="1.45" shape-rendering="geometricPrecision" font-family="sans-serif" transform="matrix(1,0,0,1,-129,62)" stroke-linecap="butt">
      <text x="699.3125" xml:space="preserve" y="274.9043" clip-path="url(#clipPath2)" stroke="none">D1</text>
      <circle fill="none" r="15" clip-path="url(#clipPath2)" cx="707.75" cy="270.75"/>
    </g>
    <g fill="rgb(51,102,255)" text-rendering="geometricPrecision" shape-rendering="geometricPrecision" transform="matrix(1,0,0,1,-129,62)" stroke="rgb(51,102,255)">
      <ellipse rx="23" ry="25" clip-path="url(#clipPath2)" cx="542.75" cy="270.75" stroke="none"/>
    </g>
    <g text-rendering="geometricPrecision" stroke-miterlimit="1.45" shape-rendering="geometricPrecision" font-family="sans-serif" transform="matrix(1,0,0,1,-129,62)" stroke-linecap="butt">
      <text x="535.3145" xml:space="preserve" y="274.9043" clip-path="url(#clipPath2)" stroke="none">P2</text>
      <ellipse rx="23" fill="none" ry="25" clip-path="url(#clipPath2)" cx="542.75" cy="270.75"/>
    </g>
    <g fill="lime" text-rendering="geometricPrecision" shape-rendering="geometricPrecision" transform="matrix(1,0,0,1,-129,62)" stroke="lime">
      <circle r="15" clip-path="url(#clipPath2)" cx="886.5" cy="270.75" stroke="none"/>
    </g>
    <g text-rendering="geometricPrecision" stroke-miterlimit="1.45" shape-rendering="geometricPrecision" font-family="sans-serif" transform="matrix(1,0,0,1,-129,62)" stroke-linecap="butt">
      <text x="878.0625" xml:space="preserve" y="274.9043" clip-path="url(#clipPath2)" stroke="none">D2</text>
      <circle fill="none" r="15" clip-path="url(#clipPath2)" cx="886.5" cy="270.75"/>
    </g>
    <g fill="red" text-rendering="geometricPrecision" shape-rendering="geometricPrecision" transform="matrix(1,0,0,1,-129,62)" stroke="red">
      <ellipse rx="33.5" ry="32.5" clip-path="url(#clipPath2)" cx="178.25" cy="573.25" stroke="none"/>
    </g>
    <g text-rendering="geometricPrecision" stroke-miterlimit="1.45" shape-rendering="geometricPrecision" font-family="sans-serif" transform="matrix(1,0,0,1,-129,62)" stroke-linecap="butt">
      <text x="160.1064" xml:space="preserve" y="577.4043" clip-path="url(#clipPath2)" stroke="none">Depot</text>
      <ellipse rx="33.5" fill="none" ry="32.5" clip-path="url(#clipPath2)" cx="178.25" cy="573.25"/>
    </g>
    <g fill="rgb(51,102,255)" text-rendering="geometricPrecision" shape-rendering="geometricPrecision" transform="matrix(1,0,0,1,-129,62)" stroke="rgb(51,102,255)">
      <ellipse rx="23" ry="25" clip-path="url(#clipPath2)" cx="356.75" cy="573.25" stroke="none"/>
    </g>
    <g text-rendering="geometricPrecision" stroke-miterlimit="1.45" shape-rendering="geometricPrecision" font-family="sans-serif" transform="matrix(1,0,0,1,-129,62)" stroke-linecap="butt">
      <text x="349.3145" xml:space="preserve" y="577.4043" clip-path="url(#clipPath2)" stroke="none">P1</text>
      <ellipse rx="23" fill="none" ry="25" clip-path="url(#clipPath2)" cx="356.75" cy="573.25"/>
    </g>
    <g fill="lime" text-rendering="geometricPrecision" shape-rendering="geometricPrecision" transform="matrix(1,0,0,1,-129,62)" stroke="lime">
      <circle r="15" clip-path="url(#clipPath2)" cx="546.75" cy="573.25" stroke="none"/>
    </g>
    <g text-rendering="geometricPrecision" stroke-miterlimit="1.45" shape-rendering="geometricPrecision" font-family="sans-serif" transform="matrix(1,0,0,1,-129,62)" stroke-linecap="butt">
      <text x="538.3125" xml:space="preserve" y="577.4043" clip-path="url(#clipPath2)" stroke="none">D1</text>
      <circle fill="none" r="15" clip-path="url(#clipPath2)" cx="546.75" cy="573.25"/>
    </g>
    <g fill="rgb(51,102,255)" text-rendering="geometricPrecision" shape-rendering="geometricPrecision" transform="matrix(1,0,0,1,-129,62)" stroke="rgb(51,102,255)">
      <ellipse rx="23" ry="25" clip-path="url(#clipPath2)" cx="707.75" cy="573.25" stroke="none"/>
    </g>
    <g text-rendering="geometricPrecision" stroke-miterlimit="1.45" shape-rendering="geometricPrecision" font-family="sans-serif" transform="matrix(1,0,0,1,-129,62)" stroke-linecap="butt">
      <text x="700.3145" xml:space="preserve" y="577.4043" clip-path="url(#clipPath2)" stroke="none">P2</text>
      <ellipse rx="23" fill="none" ry="25" clip-path="url(#clipPath2)" cx="707.75" cy="573.25"/>
    </g>
    <g fill="lime" text-rendering="geometricPrecision" shape-rendering="geometricPrecision" transform="matrix(1,0,0,1,-129,62)" stroke="lime">
      <circle r="15" clip-path="url(#clipPath2)" cx="886.5" cy="573.25" stroke="none"/>
    </g>
    <g text-rendering="geometricPrecision" stroke-miterlimit="1.45" shape-rendering="geometricPrecision" font-family="sans-serif" transform="matrix(1,0,0,1,-129,62)" stroke-linecap="butt">
      <text x="878.0625" xml:space="preserve" y="577.4043" clip-path="url(#clipPath2)" stroke="none">D2</text>
      <circle fill="none" r="15" clip-path="url(#clipPath2)" cx="886.5" cy="573.25"/>
    </g>
    <g fill="red" text-rendering="geometricPrecision" shape-rendering="geometricPrecision" transform="matrix(1,0,0,1,-129,62)" stroke="red">
      <ellipse rx="33.5" ry="32.5" clip-path="url(#clipPath2)" cx="178.25" cy="892.25" stroke="none"/>
    </g>
    <g text-rendering="geometricPrecision" stroke-miterlimit="1.45" shape-rendering="geometricPrecision" font-family="sans-serif" transform="matrix(1,0,0,1,-129,62)" stroke-linecap="butt">
      <text x="160.1064" xml:space="preserve" y="896.4043" clip-path="url(#clipPath2)" stroke="none">Depot</text>
      <ellipse rx="33.5" fill="none" ry="32.5" clip-path="url(#clipPath2)" cx="178.25" cy="892.25"/>
    </g>
    <g fill="rgb(51,102,255)" text-rendering="geometricPrecision" shape-rendering="geometricPrecision" transform="matrix(1,0,0,1,-129,62)" stroke="rgb(51,102,255)">
      <ellipse rx="23" ry="25" clip-path="url(#clipPath2)" cx="356.75" cy="892.25" stroke="none"/>
    </g>
    <g text-rendering="geometricPrecision" stroke-miterlimit="1.45" shape-rendering="geometricPrecision" font-family="sans-serif" transform="matrix(1,0,0,1,-129,62)" stroke-linecap="butt">
      <text x="349.3145" xml:space="preserve" y="896.4043" clip-path="url(#clipPath2)" stroke="none">P2</text>
      <ellipse rx="23" fill="none" ry="25" clip-path="url(#clipPath2)" cx="356.75" cy="892.25"/>
    </g>
    <g fill="lime" text-rendering="geometricPrecision" shape-rendering="geometricPrecision" transform="matrix(1,0,0,1,-129,62)" stroke="lime">
      <circle r="15" clip-path="url(#clipPath2)" cx="886.5" cy="892.25" stroke="none"/>
    </g>
    <g text-rendering="geometricPrecision" stroke-miterlimit="1.45" shape-rendering="geometricPrecision" font-family="sans-serif" transform="matrix(1,0,0,1,-129,62)" stroke-linecap="butt">
      <text x="878.0625" xml:space="preserve" y="896.4043" clip-path="url(#clipPath2)" stroke="none">D2</text>
      <circle fill="none" r="15" clip-path="url(#clipPath2)" cx="886.5" cy="892.25"/>
    </g>
    <g fill="rgb(51,102,255)" text-rendering="geometricPrecision" shape-rendering="geometricPrecision" transform="matrix(1,0,0,1,-129,62)" stroke="rgb(51,102,255)">
      <ellipse rx="23" ry="25" clip-path="url(#clipPath2)" cx="542.75" cy="892.25" stroke="none"/>
    </g>
    <g text-rendering="geometricPrecision" stroke-miterlimit="1.45" shape-rendering="geometricPrecision" font-family="sans-serif" transform="matrix(1,0,0,1,-129,62)" stroke-linecap="butt">
      <text x="535.3145" xml:space="preserve" y="896.4043" clip-path="url(#clipPath2)" stroke="none">P1</text>
      <ellipse rx="23" fill="none" ry="25" clip-path="url(#clipPath2)" cx="542.75" cy="892.25"/>
    </g>
    <g fill="lime" text-rendering="geometricPrecision" shape-rendering="geometricPrecision" transform="matrix(1,0,0,1,-129,62)" stroke="lime">
      <circle r="15" clip-path="url(#clipPath2)" cx="707.75" cy="892.25" stroke="none"/>
    </g>
    <g text-rendering="geometricPrecision" stroke-miterlimit="1.45" shape-rendering="geometricPrecision" font-family="sans-serif" transform="matrix(1,0,0,1,-129,62)" stroke-linecap="butt">
      <text x="699.3125" xml:space="preserve" y="896.4043" clip-path="url(#clipPath2)" stroke="none">D1</text>
      <circle fill="none" r="15" clip-path="url(#clipPath2)" cx="707.75" cy="892.25"/>
    </g>
    <g fill="red" text-rendering="geometricPrecision" shape-rendering="geometricPrecision" transform="matrix(1,0,0,1,-129,62)" stroke="red">
      <ellipse rx="33.5" ry="32.5" clip-path="url(#clipPath2)" cx="178.25" cy="736" stroke="none"/>
    </g>
    <g text-rendering="geometricPrecision" stroke-miterlimit="1.45" shape-rendering="geometricPrecision" font-family="sans-serif" transform="matrix(1,0,0,1,-129,62)" stroke-linecap="butt">
      <text x="160.1064" xml:space="preserve" y="740.1543" clip-path="url(#clipPath2)" stroke="none">Depot</text>
      <ellipse rx="33.5" fill="none" ry="32.5" clip-path="url(#clipPath2)" cx="178.25" cy="736"/>
    </g>
    <g fill="rgb(51,102,255)" text-rendering="geometricPrecision" shape-rendering="geometricPrecision" transform="matrix(1,0,0,1,-129,62)" stroke="rgb(51,102,255)">
      <ellipse rx="23" ry="25" clip-path="url(#clipPath2)" cx="356.75" cy="736" stroke="none"/>
    </g>
    <g text-rendering="geometricPrecision" stroke-miterlimit="1.45" shape-rendering="geometricPrecision" font-family="sans-serif" transform="matrix(1,0,0,1,-129,62)" stroke-linecap="butt">
      <text x="349.3145" xml:space="preserve" y="740.1543" clip-path="url(#clipPath2)" stroke="none">P2</text>
      <ellipse rx="23" fill="none" ry="25" clip-path="url(#clipPath2)" cx="356.75" cy="736"/>
    </g>
    <g fill="lime" text-rendering="geometricPrecision" shape-rendering="geometricPrecision" transform="matrix(1,0,0,1,-129,62)" stroke="lime">
      <circle r="15" clip-path="url(#clipPath2)" cx="707.75" cy="736" stroke="none"/>
    </g>
    <g text-rendering="geometricPrecision" stroke-miterlimit="1.45" shape-rendering="geometricPrecision" font-family="sans-serif" transform="matrix(1,0,0,1,-129,62)" stroke-linecap="butt">
      <text x="699.3125" xml:space="preserve" y="740.1543" clip-path="url(#clipPath2)" stroke="none">D2</text>
      <circle fill="none" r="15" clip-path="url(#clipPath2)" cx="707.75" cy="736"/>
    </g>
    <g fill="rgb(51,102,255)" text-rendering="geometricPrecision" shape-rendering="geometricPrecision" transform="matrix(1,0,0,1,-129,62)" stroke="rgb(51,102,255)">
      <ellipse rx="23" ry="25" clip-path="url(#clipPath2)" cx="542.75" cy="736" stroke="none"/>
    </g>
    <g text-rendering="geometricPrecision" stroke-miterlimit="1.45" shape-rendering="geometricPrecision" font-family="sans-serif" transform="matrix(1,0,0,1,-129,62)" stroke-linecap="butt">
      <text x="535.3145" xml:space="preserve" y="740.1543" clip-path="url(#clipPath2)" stroke="none">P1</text>
      <ellipse rx="23" fill="none" ry="25" clip-path="url(#clipPath2)" cx="542.75" cy="736"/>
    </g>
    <g fill="lime" text-rendering="geometricPrecision" shape-rendering="geometricPrecision" transform="matrix(1,0,0,1,-129,62)" stroke="lime">
      <circle r="15" clip-path="url(#clipPath2)" cx="886.5" cy="736" stroke="none"/>
    </g>
    <g text-rendering="geometricPrecision" stroke-miterlimit="1.45" shape-rendering="geometricPrecision" font-family="sans-serif" transform="matrix(1,0,0,1,-129,62)" stroke-linecap="butt">
      <text x="878.0625" xml:space="preserve" y="740.1543" clip-path="url(#clipPath2)" stroke="none">D1</text>
      <circle fill="none" r="15" clip-path="url(#clipPath2)" cx="886.5" cy="736"/>
    </g>
    <g fill="red" text-rendering="geometricPrecision" shape-rendering="geometricPrecision" transform="matrix(1,0,0,1,-129,62)" stroke="red">
      <ellipse rx="33.5" ry="32.5" clip-path="url(#clipPath2)" cx="178.25" cy="1038.5" stroke="none"/>
    </g>
    <g text-rendering="geometricPrecision" stroke-miterlimit="1.45" shape-rendering="geometricPrecision" font-family="sans-serif" transform="matrix(1,0,0,1,-129,62)" stroke-linecap="butt">
      <text x="160.1064" xml:space="preserve" y="1042.6543" clip-path="url(#clipPath2)" stroke="none">Depot</text>
      <ellipse rx="33.5" fill="none" ry="32.5" clip-path="url(#clipPath2)" cx="178.25" cy="1038.5"/>
    </g>
    <g fill="rgb(51,102,255)" text-rendering="geometricPrecision" shape-rendering="geometricPrecision" transform="matrix(1,0,0,1,-129,62)" stroke="rgb(51,102,255)">
      <ellipse rx="23" ry="25" clip-path="url(#clipPath2)" cx="356.75" cy="1038.5" stroke="none"/>
    </g>
    <g text-rendering="geometricPrecision" stroke-miterlimit="1.45" shape-rendering="geometricPrecision" font-family="sans-serif" transform="matrix(1,0,0,1,-129,62)" stroke-linecap="butt">
      <text x="349.3145" xml:space="preserve" y="1042.6543" clip-path="url(#clipPath2)" stroke="none">P2</text>
      <ellipse rx="23" fill="none" ry="25" clip-path="url(#clipPath2)" cx="356.75" cy="1038.5"/>
    </g>
    <g fill="lime" text-rendering="geometricPrecision" shape-rendering="geometricPrecision" transform="matrix(1,0,0,1,-129,62)" stroke="lime">
      <circle r="15" clip-path="url(#clipPath2)" cx="546.75" cy="1038.5" stroke="none"/>
    </g>
    <g text-rendering="geometricPrecision" stroke-miterlimit="1.45" shape-rendering="geometricPrecision" font-family="sans-serif" transform="matrix(1,0,0,1,-129,62)" stroke-linecap="butt">
      <text x="538.3125" xml:space="preserve" y="1042.6543" clip-path="url(#clipPath2)" stroke="none">D2</text>
      <circle fill="none" r="15" clip-path="url(#clipPath2)" cx="546.75" cy="1038.5"/>
    </g>
    <g fill="rgb(51,102,255)" text-rendering="geometricPrecision" shape-rendering="geometricPrecision" transform="matrix(1,0,0,1,-129,62)" stroke="rgb(51,102,255)">
      <ellipse rx="23" ry="25" clip-path="url(#clipPath2)" cx="707.75" cy="1038.5" stroke="none"/>
    </g>
    <g text-rendering="geometricPrecision" stroke-miterlimit="1.45" shape-rendering="geometricPrecision" font-family="sans-serif" transform="matrix(1,0,0,1,-129,62)" stroke-linecap="butt">
      <text x="700.3145" xml:space="preserve" y="1042.6543" clip-path="url(#clipPath2)" stroke="none">P1</text>
      <ellipse rx="23" fill="none" ry="25" clip-path="url(#clipPath2)" cx="707.75" cy="1038.5"/>
    </g>
    <g fill="lime" text-rendering="geometricPrecision" shape-rendering="geometricPrecision" transform="matrix(1,0,0,1,-129,62)" stroke="lime">
      <circle r="15" clip-path="url(#clipPath2)" cx="886.5" cy="1038.5" stroke="none"/>
    </g>
    <g text-rendering="geometricPrecision" stroke-miterlimit="1.45" shape-rendering="geometricPrecision" font-family="sans-serif" transform="matrix(1,0,0,1,-129,62)" stroke-linecap="butt">
      <text x="878.0625" xml:space="preserve" y="1042.6543" clip-path="url(#clipPath2)" stroke="none">D1</text>
      <circle fill="none" r="15" clip-path="url(#clipPath2)" cx="886.5" cy="1038.5"/>
    </g>
    <g stroke-linecap="butt" transform="matrix(1,0,0,1,-129,62)" fill="rgb(51,102,255)" text-rendering="geometricPrecision" shape-rendering="geometricPrecision" stroke="rgb(51,102,255)" stroke-width="3" stroke-miterlimit="1.45">
      <path fill="none" d="M391.75 -22 L529.75 -22" clip-path="url(#clipPath2)"/>
      <path d="M539.75 -22 L524.75 -28.25 L528.5 -22 L524.75 -15.75 Z" clip-path="url(#clipPath2)" stroke="none"/>
      <path fill="none" d="M372.5829 2.6504 L375.7625 23.1 L377.9141 42.1406 L378.6313 62.3625 L377.9141 83.7656 L375.7625 106.35 L372.9227 129.2914" stroke-width="2" clip-path="url(#clipPath2)" stroke="olive"/>
      <path fill="olive" d="M371.817 138.2233 L379.0579 125.5166 L373.0609 128.175 L367.8931 124.1345 Z" stroke-width="2" clip-path="url(#clipPath2)" stroke="none"/>
      <path fill="none" d="M542.7096 -13.0541 L495.9 21.725 L484.0594 30.8516 L472.6125 40.3438 L461.5594 50.2016 L450.9 60.425 L440.6344 71.0141 L430.7625 81.9688 L421.2844 93.2891 L412.2 104.975 L389.2629 135.6062" clip-path="url(#clipPath2)" stroke="rgb(255,153,0)"/>
      <path fill="rgb(255,153,0)" d="M383.269 143.6107 L397.2627 135.3501 L390.0121 134.6056 L387.257 127.8577 Z" clip-path="url(#clipPath2)" stroke="none"/>
    </g>
    <g stroke-linecap="butt" transform="matrix(1,0,0,1,-129,62)" fill="rgb(255,153,0)" text-rendering="geometricPrecision" shape-rendering="geometricPrecision" stroke-dasharray="12,4" stroke="rgb(255,153,0)" stroke-width="2" stroke-miterlimit="1.45">
      <path fill="none" d="M387.184 148.0493 L433.5125 110.475 L458.6141 89.1562 L480.9313 68.175 L500.4641 47.5312 L517.2125 27.225 L540.197 -2.9158" clip-path="url(#clipPath2)"/>
      <path d="M545.6544 -10.0723 L532.9954 -2.7483 L539.5148 -2.0212 L541.9411 4.0734 Z" clip-path="url(#clipPath2)" stroke="none"/>
      <path fill="none" d="M365.6534 138.2276 L362.0125 109.1 L359.9453 87.3594 L359.2563 66.2375 L359.9453 45.7344 L362.0125 25.85 L364.0156 11.6243" clip-path="url(#clipPath2)" stroke="olive"/>
      <path fill="olive" d="M365.2704 2.7122 L357.8181 15.2961 L363.8587 12.7383 L368.9582 16.8647 Z" clip-path="url(#clipPath2)" stroke="none"/>
      <path fill="none" d="M391.75 163 L530.75 163" clip-path="url(#clipPath2)" stroke="rgb(51,102,255)"/>
      <path fill="rgb(51,102,255)" d="M539.75 163 L526.25 157.375 L529.625 163 L526.25 168.625 Z" clip-path="url(#clipPath2)" stroke="none"/>
      <path fill="none" stroke-dasharray="none" d="M383.9374 -3.2254 L413.575 33.4125 L432.5594 55.6172 L452.8375 76.8938 L474.4094 97.2422 L497.275 116.6625 L536.066 147.9366" clip-path="url(#clipPath2)" stroke="rgb(204,153,255)"/>
      <path fill="rgb(204,153,255)" stroke-dasharray="none" d="M543.0725 153.5853 L536.0932 140.7331 L535.1902 147.2305 L529.0322 149.4912 Z" clip-path="url(#clipPath2)" stroke="none"/>
    </g>
    <g stroke-linecap="butt" transform="matrix(1,0,0,1,-129,62)" fill="purple" text-rendering="geometricPrecision" shape-rendering="geometricPrecision" stroke="purple" stroke-width="3" stroke-miterlimit="1.45">
      <path fill="none" d="M552.9362 -7.1101 L548.8375 26.5375 L547.0234 46.6328 L546.4188 67.2063 L547.0234 88.2578 L548.8375 109.7875 L551.9892 138.1529" clip-path="url(#clipPath2)"/>
      <path d="M553.0935 148.0917 L557.6488 132.4933 L551.8511 136.9105 L545.2253 133.8737 Z" clip-path="url(#clipPath2)" stroke="none"/>
      <path fill="none" stroke-dasharray="12,4" d="M558.1229 148.3841 L566.7125 111.1625 L568.8535 100.584 L570.3828 90.0547 L571.3004 79.5746 L571.6063 69.1438 L571.3004 58.7621 L570.3828 48.4297 L568.8535 38.1465 L566.7125 27.9125 L560.3437 1.339" stroke-width="2" clip-path="url(#clipPath2)"/>
      <path stroke-dasharray="12,4" d="M558.246 -7.4131 L555.9224 7.0261 L560.6059 2.4331 L566.8626 4.4041 Z" stroke-width="2" clip-path="url(#clipPath2)" stroke="none"/>
    </g>
    <g stroke-linecap="butt" transform="matrix(1,0,0,1,-129,62)" fill="rgb(204,153,255)" text-rendering="geometricPrecision" shape-rendering="geometricPrecision" stroke-dasharray="12,4" stroke="rgb(204,153,255)" stroke-width="2" stroke-miterlimit="1.45">
      <path fill="none" d="M545.6139 151.1033 L516.525 113.225 L499.5656 92.75 L479.9625 72.05 L457.7156 51.125 L432.825 29.975 L394.1726 -1.3782" clip-path="url(#clipPath2)"/>
      <path d="M387.183 -7.0479 L394.1239 5.8251 L395.0463 -0.6695 L401.211 -2.9119 Z" clip-path="url(#clipPath2)" stroke="none"/>
    </g>
    <g text-rendering="geometricPrecision" stroke-miterlimit="1.45" shape-rendering="geometricPrecision" transform="matrix(1,0,0,1,-129,62)" stroke-linecap="butt">
      <path fill="none" d="M318.75 420.75 L321.6 425.5 L211.75 425.5 L211.75 428.5 L321.6 428.5 L318.75 433.25 L333.75 427 L318.75 420.75 Z" clip-path="url(#clipPath2)"/>
    </g>
    <g stroke-linecap="butt" transform="matrix(1,0,0,1,-129,62)" fill="rgb(51,102,255)" text-rendering="geometricPrecision" shape-rendering="geometricPrecision" stroke="rgb(51,102,255)" stroke-width="3" stroke-miterlimit="1.45">
      <path fill="none" d="M378.5996 419.1925 L461.8 389.4625 L472.8035 385.8634 L484.3264 382.7441 L496.3687 380.1048 L508.9305 377.9453 L522.0117 376.2657 L535.6123 375.066 L564.3719 374.1063 L595.2092 375.066 L628.1242 377.9453 L663.117 382.7441 L700.1875 389.4625 L861.9924 422.0623" clip-path="url(#clipPath2)"/>
      <path d="M871.7955 424.0374 L858.3254 414.9479 L860.7671 421.8154 L855.8565 427.2017 Z" clip-path="url(#clipPath2)" stroke="none"/>
      <path fill="none" d="M379.75 427 L510.75 427" stroke-width="2" clip-path="url(#clipPath2)" stroke="olive"/>
      <path fill="olive" d="M519.75 427 L506.25 421.375 L509.625 427 L506.25 432.625 Z" stroke-width="2" clip-path="url(#clipPath2)" stroke="none"/>
    </g>
    <g stroke-linecap="butt" transform="matrix(1,0,0,1,-129,62)" fill="rgb(255,153,0)" text-rendering="geometricPrecision" shape-rendering="geometricPrecision" stroke-dasharray="12,4" stroke="rgb(255,153,0)" stroke-width="2" stroke-miterlimit="1.45">
      <path fill="none" d="M565.1309 432.7617 L635.15 450.7875 L654.1045 455.0449 L673.168 458.0859 L692.3405 459.9106 L711.6219 460.5187 L731.0123 459.9106 L750.5117 458.0859 L770.1201 455.0449 L789.8375 450.7875 L863.1953 432.735" clip-path="url(#clipPath2)"/>
      <path d="M871.9346 430.5844 L857.4815 428.3483 L862.1029 433.0038 L860.1698 439.2724 Z" clip-path="url(#clipPath2)" stroke="none"/>
      <path fill="none" d="M565.75 427 L683.75 427" clip-path="url(#clipPath2)" stroke="rgb(51,102,255)"/>
      <path fill="rgb(51,102,255)" d="M692.75 427 L679.25 421.375 L682.625 427 L679.25 432.625 Z" clip-path="url(#clipPath2)" stroke="none"/>
      <path fill="none" stroke-dasharray="none" d="M379.0562 420.906 L463.45 397.85 L485.0149 392.6328 L506.0594 388.9062 L526.5836 386.6703 L546.5875 385.925 L566.0711 386.6703 L585.0344 388.9062 L603.4774 392.6328 L621.4 397.85 L685.0107 419.3237" clip-path="url(#clipPath2)" stroke="rgb(204,153,255)"/>
      <path fill="rgb(204,153,255)" stroke-dasharray="none" d="M693.538 422.2023 L682.5463 412.5548 L683.9448 418.9638 L678.948 423.2139 Z" clip-path="url(#clipPath2)" stroke="none"/>
      <path fill="none" d="M722.75 427 L862.5 427" clip-path="url(#clipPath2)" stroke="purple"/>
      <path fill="purple" d="M871.5 427 L858 421.375 L861.375 427 L858 432.625 Z" clip-path="url(#clipPath2)" stroke="none"/>
    </g>
    <g text-rendering="geometricPrecision" stroke-miterlimit="1.45" shape-rendering="geometricPrecision" transform="matrix(1,0,0,1,-129,62)" stroke-linecap="butt">
      <path fill="none" d="M318.75 264.5 L321.6 269.25 L211.75 269.25 L211.75 272.25 L321.6 272.25 L318.75 277 L333.75 270.75 L318.75 264.5 Z" clip-path="url(#clipPath2)"/>
    </g>
    <g stroke-linecap="butt" transform="matrix(1,0,0,1,-129,62)" fill="rgb(51,102,255)" text-rendering="geometricPrecision" shape-rendering="geometricPrecision" stroke="rgb(51,102,255)" stroke-width="3" stroke-miterlimit="1.45">
      <path fill="none" d="M378.7777 277.942 L443.925 299.2125 L461.9953 304.3066 L480.5437 307.9453 L499.5703 310.1285 L519.075 310.8563 L539.0578 310.1285 L559.5187 307.9453 L580.4578 304.3066 L601.875 299.2125 L683.6072 277.2403" clip-path="url(#clipPath2)"/>
      <path d="M693.2643 274.6442 L677.156 272.5027 L682.4 277.5648 L680.4012 284.5741 Z" clip-path="url(#clipPath2)" stroke="none"/>
      <path fill="none" d="M379.75 270.75 L510.75 270.75" stroke-width="2" clip-path="url(#clipPath2)" stroke="olive"/>
      <path fill="olive" d="M519.75 270.75 L506.25 265.125 L509.625 270.75 L506.25 276.375 Z" stroke-width="2" clip-path="url(#clipPath2)" stroke="none"/>
    </g>
    <g stroke-linecap="butt" transform="matrix(1,0,0,1,-129,62)" fill="rgb(255,153,0)" text-rendering="geometricPrecision" shape-rendering="geometricPrecision" stroke-dasharray="12,4" stroke="rgb(255,153,0)" stroke-width="2" stroke-miterlimit="1.45">
      <path fill="none" d="M565.75 270.75 L683.75 270.75" clip-path="url(#clipPath2)"/>
      <path d="M692.75 270.75 L679.25 265.125 L682.625 270.75 L679.25 276.375 Z" clip-path="url(#clipPath2)" stroke="none"/>
      <path fill="none" d="M565.3359 266.0275 L633.5 251.775 L652.1592 248.3789 L671.0117 245.9531 L690.0576 244.4977 L709.2969 244.0125 L728.7295 244.4977 L748.3555 245.9531 L768.1748 248.3789 L788.1875 251.775 L862.9349 266.2018" clip-path="url(#clipPath2)" stroke="rgb(51,102,255)"/>
      <path fill="rgb(51,102,255)" d="M871.7718 267.9073 L859.5824 259.8259 L861.8303 265.9886 L857.4504 270.872 Z" clip-path="url(#clipPath2)" stroke="none"/>
      <path fill="none" stroke-dasharray="none" d="M379.4423 266.6746 L553.5125 235.4125 L592.4533 229.0879 L628.782 224.5703 L662.4987 221.8598 L693.6031 220.9563 L722.0955 221.8598 L735.3622 222.9892 L747.9758 224.5703 L759.9364 226.6032 L771.244 229.0879 L781.8985 232.0243 L791.9 235.4125 L864.0174 262.3517" clip-path="url(#clipPath2)" stroke="rgb(204,153,255)"/>
      <path fill="rgb(204,153,255)" stroke-dasharray="none" d="M872.4484 265.5011 L861.7703 255.5077 L862.9635 261.958 L857.8336 266.0464 Z" clip-path="url(#clipPath2)" stroke="none"/>
    </g>
    <g stroke-linecap="butt" transform="matrix(1,0,0,1,-129,62)" fill="purple" text-rendering="geometricPrecision" shape-rendering="geometricPrecision" stroke="purple" stroke-width="3" stroke-miterlimit="1.45">
      <path fill="none" d="M722.75 270.75 L861.5 270.75" clip-path="url(#clipPath2)"/>
      <path d="M871.5 270.75 L856.5 264.5 L860.25 270.75 L856.5 277 Z" clip-path="url(#clipPath2)" stroke="none"/>
    </g>
    <g text-rendering="geometricPrecision" stroke-miterlimit="1.45" shape-rendering="geometricPrecision" transform="matrix(1,0,0,1,-129,62)" stroke-linecap="butt">
      <path fill="none" d="M318.75 567 L321.6 571.75 L211.75 571.75 L211.75 574.75 L321.6 574.75 L318.75 579.5 L333.75 573.25 L318.75 567 Z" clip-path="url(#clipPath2)"/>
    </g>
    <g stroke-linecap="butt" transform="matrix(1,0,0,1,-129,62)" fill="rgb(51,102,255)" text-rendering="geometricPrecision" shape-rendering="geometricPrecision" stroke="rgb(51,102,255)" stroke-width="3" stroke-miterlimit="1.45">
      <path fill="none" d="M379.75 573.25 L521.75 573.25" clip-path="url(#clipPath2)"/>
      <path d="M531.75 573.25 L516.75 567 L520.5 573.25 L516.75 579.5 Z" clip-path="url(#clipPath2)" stroke="none"/>
      <path fill="none" d="M379.2681 578.3408 L455.8875 595.6625 L476.0988 599.6738 L496.1766 602.5391 L516.1207 604.2582 L535.9313 604.8312 L555.6082 604.2582 L575.1516 602.5391 L594.5613 599.6738 L613.8375 595.6625 L676.5309 580.7005" stroke-width="2" clip-path="url(#clipPath2)" stroke="olive"/>
      <path fill="olive" d="M685.2851 578.6113 L670.8481 576.2737 L675.4366 580.9617 L673.4596 587.2164 Z" stroke-width="2" clip-path="url(#clipPath2)" stroke="none"/>
      <path fill="none" d="M561.75 573.25 L674.75 573.25" clip-path="url(#clipPath2)" stroke="rgb(255,153,0)"/>
      <path fill="rgb(255,153,0)" d="M684.75 573.25 L669.75 567 L673.5 573.25 L669.75 579.5 Z" clip-path="url(#clipPath2)" stroke="none"/>
      <path fill="none" stroke-dasharray="12,4" d="M730.75 573.25 L862.5 573.25" stroke-width="2" clip-path="url(#clipPath2)"/>
      <path stroke-dasharray="12,4" d="M871.5 573.25 L858 567.625 L861.375 573.25 L858 578.875 Z" stroke-width="2" clip-path="url(#clipPath2)" stroke="none"/>
      <path fill="none" d="M378.8914 580.0168 L484.075 612.1625 L497.2142 615.8934 L510.5881 619.127 L524.1967 621.863 L538.0399 624.1016 L552.1177 625.8427 L566.4303 627.0863 L580.9775 627.8325 L595.7594 628.0812 L626.0272 627.0863 L657.2336 624.1016 L689.3787 619.127 L722.4625 612.1625 L863.1481 578.7895" stroke-width="2" clip-path="url(#clipPath2)" stroke="rgb(204,153,255)"/>
      <path fill="rgb(204,153,255)" d="M871.905 576.7122 L857.4713 574.355 L862.0534 579.0491 L860.0679 585.3013 Z" stroke-width="2" clip-path="url(#clipPath2)" stroke="none"/>
      <path fill="none" d="M560.8698 568.1874 L637.6375 540.6625 L656.2932 534.8301 L675.0789 530.6641 L693.9948 528.1644 L713.0406 527.3312 L732.2166 528.1644 L751.5226 530.6641 L770.9588 534.8301 L790.525 540.6625 L862.8274 565.2122" clip-path="url(#clipPath2)" stroke="purple"/>
      <path fill="purple" d="M872.2964 568.4273 L860.1024 557.6865 L861.6438 564.8102 L856.0834 569.5228 Z" clip-path="url(#clipPath2)" stroke="none"/>
    </g>
    <g text-rendering="geometricPrecision" stroke-miterlimit="1.45" shape-rendering="geometricPrecision" transform="matrix(1,0,0,1,-129,62)" stroke-linecap="butt">
      <path fill="none" d="M318.75 886 L321.6 890.75 L211.75 890.75 L211.75 893.75 L321.6 893.75 L318.75 898.5 L333.75 892.25 L318.75 886 Z" clip-path="url(#clipPath2)"/>
    </g>
    <g stroke-linecap="butt" transform="matrix(1,0,0,1,-129,62)" fill="rgb(51,102,255)" text-rendering="geometricPrecision" shape-rendering="geometricPrecision" stroke-dasharray="12,4" stroke="rgb(51,102,255)" stroke-width="2" stroke-miterlimit="1.45">
      <path fill="none" d="M378.5996 884.4425 L461.8 854.7125 L472.8035 851.1134 L484.3264 847.9941 L496.3687 845.3548 L508.9305 843.1953 L522.0117 841.5157 L535.6123 840.316 L564.3719 839.3563 L595.2092 840.316 L628.1242 843.1953 L663.117 847.9941 L700.1875 854.7125 L862.9728 887.5098" clip-path="url(#clipPath2)"/>
      <path d="M871.7955 889.2874 L859.6724 881.1068 L861.8699 887.2876 L857.4504 892.1352 Z" clip-path="url(#clipPath2)" stroke="none"/>
      <path fill="none" d="M379.75 892.25 L510.75 892.25" clip-path="url(#clipPath2)" stroke="olive"/>
      <path fill="olive" d="M519.75 892.25 L506.25 886.625 L509.625 892.25 L506.25 897.875 Z" clip-path="url(#clipPath2)" stroke="none"/>
    </g>
    <g stroke-linecap="butt" transform="matrix(1,0,0,1,-129,62)" fill="rgb(255,153,0)" text-rendering="geometricPrecision" shape-rendering="geometricPrecision" stroke="rgb(255,153,0)" stroke-width="3" stroke-miterlimit="1.45">
      <path fill="none" d="M565.1309 898.0117 L635.15 916.0375 L654.1045 920.2949 L673.168 923.3359 L692.3405 925.1605 L711.6219 925.7687 L731.0123 925.1605 L750.5117 923.3359 L770.1201 920.2949 L789.8375 916.0375 L862.2242 898.224" clip-path="url(#clipPath2)"/>
      <path d="M871.9346 895.8344 L855.8756 893.3499 L861.0105 898.5227 L858.8626 905.4877 Z" clip-path="url(#clipPath2)" stroke="none"/>
      <path fill="none" d="M565.75 892.25 L682.75 892.25" clip-path="url(#clipPath2)" stroke="rgb(51,102,255)"/>
      <path fill="rgb(51,102,255)" d="M692.75 892.25 L677.75 886 L681.5 892.25 L677.75 898.5 Z" clip-path="url(#clipPath2)" stroke="none"/>
    </g>
    <g stroke-linecap="butt" transform="matrix(1,0,0,1,-129,62)" fill="rgb(204,153,255)" text-rendering="geometricPrecision" shape-rendering="geometricPrecision" stroke-dasharray="12,4" stroke="rgb(204,153,255)" stroke-width="2" stroke-miterlimit="1.45">
      <path fill="none" d="M379.0562 886.156 L463.45 863.1 L485.0149 857.8828 L506.0594 854.1562 L526.5836 851.9203 L546.5875 851.175 L566.0711 851.9203 L585.0344 854.1562 L603.4774 857.8828 L621.4 863.1 L685.0107 884.5737" clip-path="url(#clipPath2)"/>
      <path d="M693.538 887.4523 L682.5463 877.8049 L683.9448 884.2139 L678.948 888.4639 Z" clip-path="url(#clipPath2)" stroke="none"/>
    </g>
    <g stroke-linecap="butt" transform="matrix(1,0,0,1,-129,62)" fill="purple" text-rendering="geometricPrecision" shape-rendering="geometricPrecision" stroke="purple" stroke-width="3" stroke-miterlimit="1.45">
      <path fill="none" d="M722.75 892.25 L861.5 892.25" clip-path="url(#clipPath2)"/>
      <path d="M871.5 892.25 L856.5 886 L860.25 892.25 L856.5 898.5 Z" clip-path="url(#clipPath2)" stroke="none"/>
    </g>
    <g text-rendering="geometricPrecision" stroke-miterlimit="1.45" shape-rendering="geometricPrecision" transform="matrix(1,0,0,1,-129,62)" stroke-linecap="butt">
      <path fill="none" d="M318.75 729.75 L321.6 734.5 L211.75 734.5 L211.75 737.5 L321.6 737.5 L318.75 742.25 L333.75 736 L318.75 729.75 Z" clip-path="url(#clipPath2)"/>
    </g>
    <g stroke-linecap="butt" transform="matrix(1,0,0,1,-129,62)" fill="rgb(51,102,255)" text-rendering="geometricPrecision" shape-rendering="geometricPrecision" stroke-dasharray="12,4" stroke="rgb(51,102,255)" stroke-width="2" stroke-miterlimit="1.45">
      <path fill="none" d="M378.7777 743.192 L443.925 764.4625 L461.9953 769.5566 L480.5437 773.1953 L499.5703 775.3785 L519.075 776.1063 L539.0578 775.3785 L559.5187 773.1953 L580.4578 769.5566 L601.875 764.4625 L684.5729 742.2308" clip-path="url(#clipPath2)"/>
      <path d="M693.2643 739.8942 L678.7668 737.9669 L683.4865 742.5228 L681.6875 748.8312 Z" clip-path="url(#clipPath2)" stroke="none"/>
      <path fill="none" d="M379.75 736 L510.75 736" clip-path="url(#clipPath2)" stroke="olive"/>
      <path fill="olive" d="M519.75 736 L506.25 730.375 L509.625 736 L506.25 741.625 Z" clip-path="url(#clipPath2)" stroke="none"/>
    </g>
    <g stroke-linecap="butt" transform="matrix(1,0,0,1,-129,62)" fill="rgb(255,153,0)" text-rendering="geometricPrecision" shape-rendering="geometricPrecision" stroke="rgb(255,153,0)" stroke-width="3" stroke-miterlimit="1.45">
      <path fill="none" d="M565.75 736 L682.75 736" clip-path="url(#clipPath2)"/>
      <path d="M692.75 736 L677.75 729.75 L681.5 736 L677.75 742.25 Z" clip-path="url(#clipPath2)" stroke="none"/>
      <path fill="none" d="M565.3359 731.2775 L633.5 717.025 L652.1592 713.6289 L671.0117 711.2031 L690.0576 709.7477 L709.2969 709.2625 L728.7295 709.7477 L748.3555 711.2031 L768.1748 713.6289 L788.1875 717.025 L861.953 731.2623" clip-path="url(#clipPath2)" stroke="rgb(51,102,255)"/>
      <path fill="rgb(51,102,255)" d="M871.7718 733.1573 L858.228 724.178 L860.7256 731.0254 L855.8592 736.4515 Z" clip-path="url(#clipPath2)" stroke="none"/>
    </g>
    <g stroke-linecap="butt" transform="matrix(1,0,0,1,-129,62)" fill="rgb(204,153,255)" text-rendering="geometricPrecision" shape-rendering="geometricPrecision" stroke-dasharray="12,4" stroke="rgb(204,153,255)" stroke-width="2" stroke-miterlimit="1.45">
      <path fill="none" d="M379.4423 731.9246 L553.5125 700.6625 L592.4533 694.3379 L628.782 689.8203 L662.4987 687.1097 L693.6031 686.2062 L722.0955 687.1097 L735.3622 688.2391 L747.9758 689.8203 L759.9364 691.8532 L771.244 694.3379 L781.8985 697.2743 L791.9 700.6625 L864.0174 727.6017" clip-path="url(#clipPath2)"/>
      <path d="M872.4484 730.751 L861.7703 720.7576 L862.9635 727.208 L857.8336 731.2964 Z" clip-path="url(#clipPath2)" stroke="none"/>
      <path fill="none" d="M722.75 736 L862.5 736" clip-path="url(#clipPath2)" stroke="purple"/>
      <path fill="purple" d="M871.5 736 L858 730.375 L861.375 736 L858 741.625 Z" clip-path="url(#clipPath2)" stroke="none"/>
    </g>
    <g text-rendering="geometricPrecision" stroke-miterlimit="1.45" shape-rendering="geometricPrecision" transform="matrix(1,0,0,1,-129,62)" stroke-linecap="butt">
      <path fill="none" d="M318.75 1032.25 L321.6 1037 L211.75 1037 L211.75 1040 L321.6 1040 L318.75 1044.75 L333.75 1038.5 L318.75 1032.25 Z" clip-path="url(#clipPath2)"/>
    </g>
    <g stroke-linecap="butt" transform="matrix(1,0,0,1,-129,62)" fill="rgb(51,102,255)" text-rendering="geometricPrecision" shape-rendering="geometricPrecision" stroke-dasharray="12,4" stroke="rgb(51,102,255)" stroke-width="2" stroke-miterlimit="1.45">
      <path fill="none" d="M379.75 1038.5 L522.75 1038.5" clip-path="url(#clipPath2)"/>
      <path d="M531.75 1038.5 L518.25 1032.875 L521.625 1038.5 L518.25 1044.125 Z" clip-path="url(#clipPath2)" stroke="none"/>
      <path fill="none" d="M379.2681 1043.5908 L455.8875 1060.9125 L476.0988 1064.9238 L496.1766 1067.7891 L516.1207 1069.5082 L535.9313 1070.0813 L555.6082 1069.5082 L575.1516 1067.7891 L594.5613 1064.9238 L613.8375 1060.9125 L676.5309 1045.9506" clip-path="url(#clipPath2)" stroke="olive"/>
      <path fill="olive" d="M685.2851 1043.8613 L670.8481 1041.5238 L675.4367 1046.2117 L673.4597 1052.4666 Z" clip-path="url(#clipPath2)" stroke="none"/>
      <path fill="none" d="M561.75 1038.5 L675.75 1038.5" clip-path="url(#clipPath2)" stroke="rgb(204,153,255)"/>
      <path fill="rgb(204,153,255)" d="M684.75 1038.5 L671.25 1032.875 L674.625 1038.5 L671.25 1044.125 Z" clip-path="url(#clipPath2)" stroke="none"/>
      <path fill="none" stroke-dasharray="none" d="M730.75 1038.5 L861.5 1038.5" stroke-width="3" clip-path="url(#clipPath2)"/>
      <path stroke-dasharray="none" d="M871.5 1038.5 L856.5 1032.25 L860.25 1038.5 L856.5 1044.75 Z" stroke-width="3" clip-path="url(#clipPath2)" stroke="none"/>
      <path fill="none" d="M378.8914 1045.2667 L484.075 1077.4125 L497.2142 1081.1434 L510.5881 1084.377 L524.1967 1087.1129 L538.0399 1089.3516 L552.1177 1091.0927 L566.4303 1092.3363 L580.9775 1093.0825 L595.7594 1093.3313 L626.0272 1092.3363 L657.2336 1089.3516 L689.3787 1084.377 L722.4625 1077.4125 L863.1481 1044.0394" clip-path="url(#clipPath2)" stroke="rgb(204,153,255)"/>
      <path fill="rgb(204,153,255)" d="M871.9051 1041.9622 L857.4713 1039.605 L862.0535 1044.2991 L860.0679 1050.5511 Z" clip-path="url(#clipPath2)" stroke="none"/>
      <path fill="none" d="M560.8698 1033.4374 L637.6375 1005.9125 L656.2932 1000.0801 L675.0789 995.9141 L693.9948 993.4144 L713.0406 992.5812 L732.2166 993.4144 L751.5226 995.9141 L770.9588 1000.0801 L790.525 1005.9125 L863.7743 1030.7836" clip-path="url(#clipPath2)" stroke="purple"/>
      <path fill="purple" d="M872.2964 1033.6772 L861.3218 1024.0104 L862.709 1030.4219 L857.7047 1034.6631 Z" clip-path="url(#clipPath2)" stroke="none"/>
    </g>
  </g>
</svg>
